<svg xmlns="http://www.w3.org/2000/svg" width="280px" height="80px"  viewBox="0 0 280 80">
  <defs>
    <style>
      .a {
        fill: #a19276;
      }
    </style>
  </defs>
  <title>logo</title>
  <path class="a" d="M150,27.77a6.87,6.87,0,0,1-13.74,0V9.5h-5.93V27.77a12.81,12.81,0,1,0,25.61.72h0V9.5H150Z"/>
  <path class="a" d="M17.44,15.43A9.58,9.58,0,0,1,24,18.05l3.4-4.92a15.54,15.54,0,1,0,0,23.8L24,32a9.6,9.6,0,1,1-6.58-16.59"/>
  <polygon class="a" points="84.35 30.38 69.9 9.5 63.96 9.5 63.96 40.57 69.9 40.57 69.9 19.69 84.35 40.57 90.28 40.57 90.28 9.5 84.35 9.5 84.35 30.38 84.35 30.38"/>
  <polygon class="a" points="98.18 9.5 98.18 15.43 107.35 15.43 107.35 40.57 113.28 40.57 113.28 15.43 122.45 15.43 122.45 9.5 98.18 9.5 98.18 9.5"/>
  <polygon class="a" points="261.81 9.5 261.81 15.43 265.04 15.43 265.04 40.57 270.98 40.57 270.98 9.5 261.81 9.5 261.81 9.5"/>
  <polygon class="a" points="35.34 9.5 35.34 40.57 56.05 40.57 56.05 34.63 41.27 34.63 41.27 28 53.13 28 53.13 22.07 41.27 22.07 41.27 15.43 56.05 15.43 56.05 9.5 35.34 9.5 35.34 9.5"/>
  <path class="a" d="M177.29,24.43h-7.48v-9h7.48a4.5,4.5,0,0,1,0,9m10.43-4.5A10.44,10.44,0,0,0,177.29,9.5H163.88V40.57h5.93V30.36h3.79l7.07,10.21h7.05L180.34,29.9a10.43,10.43,0,0,0,7.38-10"/>
  <polygon class="a" points="214.9 9.5 206.19 22.07 197.5 9.5 190.44 9.5 203.23 27.97 203.23 40.57 209.16 40.57 209.16 27.97 221.95 9.5 214.9 9.5 214.9 9.5"/>
  <path class="a" d="M253.42,25l.15-.22a9.82,9.82,0,1,0-18-5.48v.37h5.94V19.3a3.91,3.91,0,0,1,3.88-3.89A3.76,3.76,0,0,1,249.28,19v.26a7.64,7.64,0,0,1-1.25,3L235.44,40.57h20.38V34.63h-9.06Z"/>
  <path class="a" d="M274.85,38h.54a.82.82,0,0,0,.53-.12.37.37,0,0,0,.14-.3.34.34,0,0,0-.07-.22.34.34,0,0,0-.18-.15,1.7,1.7,0,0,0-.45,0h-.51Zm-.44,1.55V36.76h.95a2.35,2.35,0,0,1,.7.08.75.75,0,0,1,.35.26.73.73,0,0,1,.12.41.74.74,0,0,1-.21.53.88.88,0,0,1-.57.25,1.09,1.09,0,0,1,.23.14,3.15,3.15,0,0,1,.41.55l.33.54h-.54l-.24-.43a2.51,2.51,0,0,0-.47-.65.57.57,0,0,0-.36-.09h-.26v1.17ZM275.53,36a2.21,2.21,0,0,0-1,.28,2,2,0,0,0-.8.79,2.1,2.1,0,0,0-.29,1.07,2.18,2.18,0,0,0,.28,1.06,1.93,1.93,0,0,0,.8.8,2.18,2.18,0,0,0,1.06.28,2.21,2.21,0,0,0,1-.28,2,2,0,0,0,.79-.8,2.13,2.13,0,0,0,0-2.13,2,2,0,0,0-.8-.79,2.14,2.14,0,0,0-1.05-.28m0-.42a2.66,2.66,0,0,1,1.26.33,2.3,2.3,0,0,1,1,1,2.6,2.6,0,0,1,0,2.56,2.35,2.35,0,0,1-.95,1,2.61,2.61,0,0,1-1.28.34,2.57,2.57,0,0,1-1.27-.34,2.35,2.35,0,0,1-.95-1,2.6,2.6,0,0,1,0-2.56,2.3,2.3,0,0,1,1-1,2.66,2.66,0,0,1,1.26-.33"/>
  <g>
    <path class="a" d="M8.8,68.89A7.66,7.66,0,0,1,5.88,58.24a7.37,7.37,0,0,1,3-2.7,9.19,9.19,0,0,1,4.24-1,9.36,9.36,0,0,1,3.94.8,7.38,7.38,0,0,1,2.78,2.1L17.58,59a5.21,5.21,0,0,0-1.95-1.36,6.66,6.66,0,0,0-2.57-.48,6.17,6.17,0,0,0-2.86.64,4.8,4.8,0,0,0-2.72,4.46,5,5,0,0,0,.7,2.64,4.85,4.85,0,0,0,2,1.81,6.3,6.3,0,0,0,2.89.65,6.74,6.74,0,0,0,2.7-.53,4.89,4.89,0,0,0,2-1.57l2.16,1.56A7.06,7.06,0,0,1,17,69.07a9.78,9.78,0,0,1-3.92.79A9.1,9.1,0,0,1,8.8,68.89Z"/>
    <path class="a" d="M24.35,69.16a5.41,5.41,0,0,1-2.19-2,5.21,5.21,0,0,1-.8-2.87,5.28,5.28,0,0,1,.8-2.89,5.41,5.41,0,0,1,2.19-2,7.28,7.28,0,0,1,6.28,0,5.41,5.41,0,0,1,2.19,2,5.28,5.28,0,0,1,.8,2.89,5.21,5.21,0,0,1-.8,2.87,5.41,5.41,0,0,1-2.19,2A7.42,7.42,0,0,1,24.35,69.16Zm5.76-2.5a3,3,0,0,0,1-2.34,3.11,3.11,0,0,0-1-2.38,3.79,3.79,0,0,0-2.62-.9,3.77,3.77,0,0,0-2.61.9,3.07,3.07,0,0,0-1,2.38,3,3,0,0,0,1,2.34,3.77,3.77,0,0,0,2.61.89A3.85,3.85,0,0,0,30.11,66.66Z"/>
    <path class="a" d="M44.68,59.89a4.29,4.29,0,0,1,1.25,3.36v6.34H43.79L43.62,68a4.37,4.37,0,0,1-1.81,1.4,5.85,5.85,0,0,1-2.37.49,4.89,4.89,0,0,1-2-.39A3.48,3.48,0,0,1,36,68.31a3.13,3.13,0,0,1-.56-1.85,2.81,2.81,0,0,1,1.37-2.55,6.11,6.11,0,0,1,3.31-.85,12.7,12.7,0,0,1,3.42.46v-.23q0-2.31-2.85-2.31a7.12,7.12,0,0,0-1.89.26,5.28,5.28,0,0,0-1.68.79l-1-1.79a7.75,7.75,0,0,1,2.22-1.08,8.88,8.88,0,0,1,2.76-.41A5.22,5.22,0,0,1,44.68,59.89Zm-3,7.56A3.39,3.39,0,0,0,43,66.56a1.86,1.86,0,0,0,.51-1.32,10.12,10.12,0,0,0-3-.42,4,4,0,0,0-1.9.38,1.22,1.22,0,0,0-.7,1.15,1.16,1.16,0,0,0,.56,1,2.77,2.77,0,0,0,1.54.37,4.66,4.66,0,0,0,1.66-.27Z"/>
    <path class="a" d="M50.5,69.48a7,7,0,0,1-2.32-1l.92-1.85a5.62,5.62,0,0,0,1.88.81,9.68,9.68,0,0,0,2.4.3,5,5,0,0,0,1.8-.28,1,1,0,0,0,.72-.92.73.73,0,0,0-.32-.62,2.15,2.15,0,0,0-.77-.31c-.29-.06-.83-.16-1.61-.28a16,16,0,0,1-2.55-.59,3.38,3.38,0,0,1-1.48-.95,2.35,2.35,0,0,1-.51-1.59,2.78,2.78,0,0,1,1.47-2.63,7,7,0,0,1,3.48-.82,9.48,9.48,0,0,1,2.43.32,8.35,8.35,0,0,1,2.05.84l-.93,1.87a5.91,5.91,0,0,0-1.6-.67,7.93,7.93,0,0,0-2-.24,4.25,4.25,0,0,0-1.8.31,1,1,0,0,0-.61.89.61.61,0,0,0,.19.48,1.42,1.42,0,0,0,.66.33c.31.09.79.19,1.42.3,1.16.21,2.07.41,2.72.6a3.78,3.78,0,0,1,1.6.89,2.28,2.28,0,0,1,.63,1.68A3,3,0,0,1,57,68.94a6.73,6.73,0,0,1-3.72.92A10.47,10.47,0,0,1,50.5,69.48Z"/>
    <path class="a" d="M69.3,68.81a5.3,5.3,0,0,1-3.38,1,4.51,4.51,0,0,1-3.19-1,3.89,3.89,0,0,1-1.11-3v-4.6H59.28V59h2.34V55.64h2.45V59h4.54v2.21H64.07v4.43c0,1.26.67,1.89,2,1.89a3.33,3.33,0,0,0,2.12-.73Z"/>
    <path class="a" d="M80,59.89a4.25,4.25,0,0,1,1.25,3.36v6.34H79.13L79,68a4.41,4.41,0,0,1-1.8,1.4,5.9,5.9,0,0,1-2.38.49,4.89,4.89,0,0,1-2-.39,3.4,3.4,0,0,1-1.49-1.16,3,3,0,0,1-.57-1.85,2.8,2.8,0,0,1,1.38-2.55,6.08,6.08,0,0,1,3.3-.85,12.83,12.83,0,0,1,3.43.46v-.23c0-1.54-1-2.31-2.86-2.31a7.12,7.12,0,0,0-1.89.26,5.28,5.28,0,0,0-1.68.79l-1-1.79a8,8,0,0,1,2.22-1.08,8.88,8.88,0,0,1,2.76-.41A5.19,5.19,0,0,1,80,59.89Zm-3,7.56a3.36,3.36,0,0,0,1.31-.89,1.91,1.91,0,0,0,.52-1.32,10.45,10.45,0,0,0-3-.42,4,4,0,0,0-1.9.38,1.22,1.22,0,0,0-.7,1.15,1.17,1.17,0,0,0,.57,1,2.72,2.72,0,0,0,1.53.37A4.5,4.5,0,0,0,77,67.45Z"/>
    <path class="a" d="M84.44,53.84H86.9V69.59H84.44Z"/>
    <path class="a" d="M106.64,66H99.25l-1.54,3.57H94.9l6.55-14.7h3L111,69.59h-2.84Zm-1-2.44L103,57.37l-2.64,6.19Z"/>
    <path class="a" d="M113.19,53.84h2.46V69.59h-2.46Z"/>
    <path class="a" d="M119,53.84h2.45V69.59H119Z"/>
    <path class="a" d="M125.17,57.12a1.55,1.55,0,0,1,0-2.18,1.58,1.58,0,0,1,2.21,0,1.55,1.55,0,0,1,0,2.18,1.49,1.49,0,0,1-1.11.46A1.47,1.47,0,0,1,125.17,57.12Zm2.32,12.47h-2.43V59h2.43Z"/>
    <path class="a" d="M139.93,59.89a4.25,4.25,0,0,1,1.25,3.36v6.34H139L138.87,68a4.41,4.41,0,0,1-1.8,1.4,5.9,5.9,0,0,1-2.38.49,5.06,5.06,0,0,1-2-.39,3.4,3.4,0,0,1-1.49-1.16,3,3,0,0,1-.57-1.85A2.82,2.82,0,0,1,132,63.91a6.17,6.17,0,0,1,3.3-.85,12.83,12.83,0,0,1,3.43.46v-.23c0-1.54-1-2.31-2.86-2.31a7.12,7.12,0,0,0-1.89.26,5.28,5.28,0,0,0-1.68.79l-1-1.79a8,8,0,0,1,2.22-1.08,8.88,8.88,0,0,1,2.76-.41A5.19,5.19,0,0,1,139.93,59.89Zm-3,7.56a3.36,3.36,0,0,0,1.31-.89,1.85,1.85,0,0,0,.52-1.32,10.45,10.45,0,0,0-3-.42,4,4,0,0,0-1.9.38,1.22,1.22,0,0,0-.7,1.15,1.17,1.17,0,0,0,.57,1,2.72,2.72,0,0,0,1.53.37,4.66,4.66,0,0,0,1.66-.27Z"/>
    <path class="a" d="M152.77,59.28a3.9,3.9,0,0,1,1.65,1.49A4.16,4.16,0,0,1,155,63v6.62h-2.45V63.43a2.23,2.23,0,0,0-.74-1.73,2.81,2.81,0,0,0-2-.66,3.82,3.82,0,0,0-2.22.67,2.14,2.14,0,0,0-1,1.83v6.05h-2.46V59h2.16l.15,1.5a4,4,0,0,1,1.62-1.31,5.64,5.64,0,0,1,4.66.09Z"/>
    <path class="a" d="M160.29,69.15a5.46,5.46,0,0,1-2.17-7.73,5.32,5.32,0,0,1,2.18-2,6.89,6.89,0,0,1,3.12-.71,7.1,7.1,0,0,1,2.5.42,5.38,5.38,0,0,1,2,1.2L166.11,62a3,3,0,0,0-1.11-.7,4.37,4.37,0,0,0-1.56-.26,3.67,3.67,0,0,0-2.57.9,3.27,3.27,0,0,0-.09,4.62l.09.09a3.77,3.77,0,0,0,2.61.9,3.73,3.73,0,0,0,2.76-1.07L168,68.12a5.6,5.6,0,0,1-2,1.29,6.93,6.93,0,0,1-2.55.45A6.77,6.77,0,0,1,160.29,69.15Z"/>
    <path class="a" d="M172.61,67a4.12,4.12,0,0,0,2.38.67,5.08,5.08,0,0,0,1.73-.3,4.26,4.26,0,0,0,1.44-.84l1.56,1.62a6.33,6.33,0,0,1-2.09,1.24,7.71,7.71,0,0,1-2.57.44,7.32,7.32,0,0,1-3.19-.67,5.18,5.18,0,0,1-2.19-1.93,5.82,5.82,0,0,1,0-5.82,5.17,5.17,0,0,1,2.12-2,6.66,6.66,0,0,1,3.13-.72,6,6,0,0,1,3,.71,4.79,4.79,0,0,1,2.53,4.27c0,.24,0,.47,0,.71a3.69,3.69,0,0,1-.12.74H171.4A3,3,0,0,0,172.61,67Zm0-5.47a3,3,0,0,0-1.18,1.73h6.49A2.37,2.37,0,0,0,177,61.6a3.38,3.38,0,0,0-2.19-.66,3.7,3.7,0,0,0-2.19.62Z"/>
  </g>
</svg>
