<?xml version="1.0" encoding="utf-8"?>
<svg xmlns="http://www.w3.org/2000/svg" width="755.916" height="779.013" viewBox="0 0 755.916 779.013" role="img" artist="Katerina Limpitsouni" source="https://undraw.co/">
  <g transform="translate(-510.674 -142.449)">
    <path d="M424.736,259.7h-6.555V219.34a20.566,20.566,0,0,0-20.566-20.566h-28.4V140.692h-4.555v58.081H325.934V259.7H287.783V843.93h214.1V336.852A77.15,77.15,0,0,0,424.736,259.7Z" transform="translate(235.61 47.795)" style="fill: rgb(114, 114, 115);"/>
    <path d="M595.238,567.689h-5.654v-7.9a20.551,20.551,0,0,0-19.36-20.506V485.692h-4.555v53.526h-20.5v28.471H472.283V796.6H634V606.45A38.761,38.761,0,0,0,595.238,567.689Z" transform="translate(261.227 95.697)" style="fill: rgb(114, 114, 115);"/>
    <path d="M871.5,424.506V410.784a20.549,20.549,0,0,0-19.36-20.506V336.692h-4.555v53.526h-20.5v34.165h-96.8v392.9h214.1V501.533A77.147,77.147,0,0,0,871.5,424.506Z" transform="translate(297.049 75.01)" style="fill: rgb(114, 114, 115);"/>
    <rect width="28.471" height="22.777" transform="translate(1062.636 555.195)" style="fill: rgb(168, 168, 168);"/>
    <rect width="28.471" height="22.777" transform="translate(1109.329 555.195)" style="fill: rgb(168, 168, 168);"/>
    <rect width="28.471" height="22.777" transform="translate(1062.636 613.277)" style="fill: rgb(168, 168, 168);"/>
    <rect width="28.471" height="22.777" transform="translate(1109.329 613.277)" style="fill: rgb(168, 168, 168);"/>
    <rect width="28.471" height="22.777" transform="translate(1062.636 671.357)" style="fill: rgb(168, 168, 168);"/>
    <rect width="28.471" height="22.777" transform="translate(1109.329 671.357)" style="fill: rgb(168, 168, 168);"/>
    <rect width="28.471" height="22.777" transform="translate(1062.636 729.439)" style="fill: rgb(168, 168, 168);"/>
    <rect width="28.471" height="22.777" transform="translate(1109.329 729.439)" style="fill: rgb(168, 168, 168);"/>
    <rect width="28.471" height="22.777" transform="translate(1062.636 787.52)" style="fill: rgb(168, 168, 168);"/>
    <rect width="28.471" height="22.777" transform="translate(1109.329 787.52)" style="fill: rgb(168, 168, 168);"/>
    <rect width="28.471" height="22.777" transform="translate(1062.636 845.602)" style="fill: rgb(168, 168, 168);"/>
    <rect width="28.471" height="22.777" transform="translate(1109.329 845.602)" style="fill: rgb(168, 168, 168);"/>
    <rect width="92.246" height="6.833" transform="translate(584.321 353.619)" style="fill: rgb(168, 168, 168);"/>
    <rect width="92.246" height="6.833" transform="translate(584.321 395.758)" style="fill: rgb(168, 168, 168);"/>
    <rect width="92.246" height="6.833" transform="translate(584.321 437.895)" style="fill: rgb(168, 168, 168);"/>
    <rect width="92.246" height="6.833" transform="translate(584.321 480.031)" style="fill: rgb(168, 168, 168);"/>
    <rect width="92.246" height="6.833" transform="translate(584.321 522.17)" style="fill: rgb(168, 168, 168);"/>
    <rect width="92.246" height="6.833" transform="translate(584.321 564.307)" style="fill: rgb(168, 168, 168);"/>
    <rect width="92.246" height="6.833" transform="translate(584.321 606.443)" style="fill: rgb(168, 168, 168);"/>
    <rect width="92.246" height="6.833" transform="translate(584.321 648.582)" style="fill: rgb(168, 168, 168);"/>
    <rect width="92.246" height="6.833" transform="translate(584.321 690.719)" style="fill: rgb(168, 168, 168);"/>
    <rect width="92.246" height="6.833" transform="translate(584.321 732.855)" style="fill: rgb(168, 168, 168);"/>
    <rect width="92.246" height="6.833" transform="translate(584.321 774.994)" style="fill: rgb(168, 168, 168);"/>
    <rect width="92.246" height="6.833" transform="translate(584.321 817.131)" style="fill: rgb(168, 168, 168);"/>
    <rect width="28.471" height="22.777" transform="translate(753.44 694.135)" style="fill: rgb(168, 168, 168);"/>
    <rect width="28.471" height="22.777" transform="translate(800.132 694.135)" style="fill: rgb(168, 168, 168);"/>
    <rect width="28.471" height="22.777" transform="translate(846.825 694.135)" style="fill: rgb(168, 168, 168);"/>
    <rect width="28.471" height="22.777" transform="translate(754.009 752.217)" style="fill: rgb(168, 168, 168);"/>
    <rect width="28.471" height="22.777" transform="translate(800.702 752.217)" style="fill: rgb(168, 168, 168);"/>
    <rect width="28.471" height="22.777" transform="translate(847.395 752.217)" style="fill: rgb(168, 168, 168);"/>
    <rect width="28.471" height="22.777" transform="translate(754.579 810.297)" style="fill: rgb(168, 168, 168);"/>
    <rect width="28.471" height="22.777" transform="translate(801.271 810.297)" style="fill: rgb(168, 168, 168);"/>
    <rect width="28.471" height="22.777" transform="translate(847.964 810.297)" style="fill: rgb(168, 168, 168);"/>
    <rect width="28.471" height="22.777" transform="translate(593.432 259.096)" style="fill: rgb(168, 168, 168);"/>
    <path d="M354.189,705.182a6.133,6.133,0,0,0,4.818,3.264c.518.051.37.846-.145.8a6.873,6.873,0,0,1-5.338-3.6.418.418,0,0,1,.1-.563A.407.407,0,0,1,354.189,705.182Z" transform="translate(244.729 126.15)" fill="#fff"/>
    <path d="M804.695,734.2a20.882,20.882,0,0,0,14.691-3.986c.418-.311.878.354.456.664a21.719,21.719,0,0,1-15.291,4.119C804.033,734.937,804.18,734.142,804.695,734.2Z" transform="translate(307.316 129.637)" fill="#fff"/>
    <path d="M712.844,614.281a.443.443,0,0,0,.2-.356c-.059.052-.114.107-.178.158C712.862,614.151,712.86,614.213,712.844,614.281Z" transform="translate(294.628 113.502)" fill="#2f2e41"/>
    <path d="M623.3,478.869l-5.078,2.6a.2.2,0,0,1-.186-.362l5.078-2.6a.2.2,0,0,1,.186.362Z" transform="translate(281.451 94.697)" fill="#fff"/>
    <ellipse cx="0.163" cy="0.163" rx="0.163" ry="0.163" transform="translate(905.293 572.814)" fill="#fff"/>
    <path d="M255.615,690.439c0,.945.556,1.714,1.246,1.717h753.417c.692,0,1.253-.769,1.253-1.717s-.561-1.717-1.253-1.717H256.868c-.69,0-1.251.761-1.253,1.707Z" transform="translate(255.059 203.572)" style="fill: rgb(168, 168, 168);"/>
    <path d="M408,405.11s11.72-6.66,14.41-5.33S408,405.11,408,405.11Z" transform="translate(471.36 89.988)" opacity="0.1"/>
  </g>
</svg>