<?xml version="1.0" encoding="utf-8"?>
<svg xmlns="http://www.w3.org/2000/svg" preserveAspectRatio="none" width="755.916" height="779.013" viewBox="0 0 755.916 779.013" role="img" artist="Katerina Limpitsouni" source="https://undraw.co/">
  <g transform="translate(-510.674 -142.449)">
    <path d="M 660.346 308.581 L 653.791 308.581 L 653.791 268.221 C 653.791 256.863 644.583 247.655 633.225 247.655 L 604.825 247.655 L 604.825 189.573 L 600.27 189.573 L 600.27 247.654 L 561.544 247.654 L 561.544 308.581 L 523.393 308.581 L 523.393 892.811 L 737.493 892.811 L 737.493 385.733 C 737.494 343.125 702.954 308.583 660.346 308.581 Z" style="fill: rgb(114, 114, 115);"/>
    <path d="M595.238,567.689h-5.654v-7.9a20.551,20.551,0,0,0-19.36-20.506V485.692h-4.555v53.526h-20.5v28.471H472.283V796.6H634V606.45A38.761,38.761,0,0,0,595.238,567.689Z" style="fill: rgb(114, 114, 115);" transform="translate(261.227 95.697)"/>
    <path d="M871.5,424.506V410.784a20.549,20.549,0,0,0-19.36-20.506V336.692h-4.555v53.526h-20.5v34.165h-96.8v392.9h214.1V501.533A77.147,77.147,0,0,0,871.5,424.506Z" style="fill: rgb(114, 114, 115);" transform="translate(297.049 75.01)"/>
    <rect width="28.471" height="22.777" transform="translate(1062.636 555.195)" style="fill: rgb(168, 168, 168);"/>
    <rect width="28.471" height="22.777" transform="translate(1109.329 555.195)" style="fill: rgb(168, 168, 168);"/>
    <rect width="28.471" height="22.777" transform="translate(1062.636 613.277)" style="fill: rgb(168, 168, 168);"/>
    <rect width="28.471" height="22.777" transform="translate(1109.329 613.277)" style="fill: rgb(168, 168, 168);"/>
    <rect width="28.471" height="22.777" transform="translate(1062.636 671.357)" style="fill: rgb(168, 168, 168);"/>
    <rect width="28.471" height="22.777" transform="translate(1109.329 671.357)" style="fill: rgb(168, 168, 168);"/>
    <rect width="28.471" height="22.777" transform="translate(1062.636 729.439)" style="fill: rgb(168, 168, 168);"/>
    <rect width="28.471" height="22.777" transform="translate(1109.329 729.439)" style="fill: rgb(168, 168, 168);"/>
    <rect width="28.471" height="22.777" transform="translate(1062.636 787.52)" style="fill: rgb(168, 168, 168);"/>
    <rect width="28.471" height="22.777" transform="translate(1109.329 787.52)" style="fill: rgb(168, 168, 168);"/>
    <rect width="28.471" height="22.777" transform="translate(1062.636 845.602)" style="fill: rgb(168, 168, 168);"/>
    <rect width="28.471" height="22.777" transform="translate(1109.329 845.602)" style="fill: rgb(168, 168, 168);"/>
    <rect width="92.246" height="6.833" transform="translate(584.321 353.619)" style="fill: rgb(168, 168, 168);"/>
    <rect width="92.246" height="6.833" transform="translate(584.321 395.758)" style="fill: rgb(168, 168, 168);"/>
    <rect width="92.246" height="6.833" transform="translate(584.321 437.895)" style="fill: rgb(168, 168, 168);"/>
    <rect width="92.246" height="6.833" transform="translate(584.321 480.031)" style="fill: rgb(168, 168, 168);"/>
    <rect width="92.246" height="6.833" transform="translate(584.321 522.17)" style="fill: rgb(168, 168, 168);"/>
    <rect width="92.246" height="6.833" transform="translate(584.321 564.307)" style="fill: rgb(168, 168, 168);"/>
    <rect width="92.246" height="6.833" transform="translate(584.321 606.443)" style="fill: rgb(168, 168, 168);"/>
    <rect width="92.246" height="6.833" transform="translate(584.321 648.582)" style="fill: rgb(168, 168, 168);"/>
    <rect width="92.246" height="6.833" transform="translate(584.321 690.719)" style="fill: rgb(168, 168, 168);"/>
    <rect width="92.246" height="6.833" transform="translate(584.321 732.855)" style="fill: rgb(168, 168, 168);"/>
    <rect width="92.246" height="6.833" transform="translate(584.321 774.994)" style="fill: rgb(168, 168, 168);"/>
    <rect width="92.246" height="6.833" transform="translate(584.321 817.131)" style="fill: rgb(168, 168, 168);"/>
    <rect width="28.471" height="22.777" transform="translate(753.44 694.135)" style="fill: rgb(168, 168, 168);"/>
    <rect width="28.471" height="22.777" transform="translate(800.132 694.135)" style="fill: rgb(168, 168, 168);"/>
    <rect width="28.471" height="22.777" transform="translate(846.825 694.135)" style="fill: rgb(168, 168, 168);"/>
    <rect width="28.471" height="22.777" transform="translate(754.009 752.217)" style="fill: rgb(168, 168, 168);"/>
    <rect width="28.471" height="22.777" transform="translate(800.702 752.217)" style="fill: rgb(168, 168, 168);"/>
    <rect width="28.471" height="22.777" transform="translate(847.395 752.217)" style="fill: rgb(168, 168, 168);"/>
    <rect width="28.471" height="22.777" transform="translate(754.579 810.297)" style="fill: rgb(168, 168, 168);"/>
    <rect width="28.471" height="22.777" transform="translate(801.271 810.297)" style="fill: rgb(168, 168, 168);"/>
    <rect width="28.471" height="22.777" transform="translate(847.964 810.297)" style="fill: rgb(168, 168, 168);"/>
    <rect width="28.471" height="22.777" transform="translate(593.432 259.096)" style="fill: rgb(168, 168, 168);"/>
    <path d="M712.844,614.281a.443.443,0,0,0,.2-.356c-.059.052-.114.107-.178.158C712.862,614.151,712.86,614.213,712.844,614.281Z" transform="translate(294.628 113.502)" fill="#2f2e41"/>
    <path d="M255.615,690.439c0,.945.556,1.714,1.246,1.717h753.417c.692,0,1.253-.769,1.253-1.717s-.561-1.717-1.253-1.717H256.868c-.69,0-1.251.761-1.253,1.707Z" transform="translate(255.059 203.572)" style="fill: rgb(168, 168, 168);"/>
  </g>
</svg>